<svg id="Layer_1" data-name="Layer 1" xmlns="http://www.w3.org/2000/svg"
    viewBox="0 0 178.61 130.65">
    <polygon
        points="54.02 0 31.24 0 8.46 23.36 8.46 70.07 31.24 93.42 76.81 93.42 99.59 70.07 76.81 46.71 54.02 70.07 30.43 46.71 54.02 23.36 54.02 0"
        fill="#539b99" />
    <polyline
        points="54.02 23.36 77.62 0 122.37 0 142.85 21.13 145.15 70.07 122.37 93.42 99.59 93.42 99.59 70.07 122.37 46.71 99.59 23.36 76.81 46.71"
        fill="#61dbd5" />
    <path
        d="M108.23,286.9c-.65,3.75-3,6.49-7,6.49-5.18,0-7.62-4.52-7.62-10.24,0-5.52,2.52-10.46,7.79-10.46,4.35,0,6.46,3.14,6.85,6.51h-3.53c-.34-1.55-1.21-3.1-3.43-3.1-2.91,0-4,3.23-4,6.89,0,3.4,1,7,4.13,7,2.31,0,3-1.9,3.34-3.08Z"
        transform="translate(-93.57 -162.75)" fill="#61dbd5" />
    <path
        d="M126.21,283c0,5.6-2.72,10.43-8,10.43-5.12,0-7.8-4.59-7.8-10.36s3-10.35,8-10.35C123.19,272.69,126.21,276.81,126.21,283ZM114,283c0,3.93,1.4,6.91,4.3,6.91,3.14,0,4.25-3.25,4.25-6.83,0-3.81-1.27-6.8-4.31-6.8S114,279,114,283Z"
        transform="translate(-93.57 -162.75)" fill="#61dbd5" />
    <path
        d="M135,273h6.47c4.76,0,7.86,3.86,7.86,9.81s-3,10.31-8,10.31H135Zm3.53,16.61h2.64c3.13,0,4.52-2.87,4.52-6.79,0-3.29-1.3-6.3-4.49-6.3h-2.67Z"
        transform="translate(-93.57 -162.75)" fill="#539b99" />
    <path d="M163.69,284.42h-7.81v5.12h8.61l-.42,3.56H152.45V273H164v3.57h-8.15v4.31h7.81Z"
        transform="translate(-93.57 -162.75)" fill="#539b99" />
    <path
        d="M171.51,293.1,165.75,273h3.79l2.43,9.3c.74,2.81,1.3,5.19,1.68,7.25h0c.34-1.88,1-4.34,1.75-7.19L178,273h3.6l-5.91,20.12Z"
        transform="translate(-93.57 -162.75)" fill="#539b99" />
    <path d="M194.8,284.42H187v5.12h8.61l-.41,3.56H183.56V273h11.58v3.57H187v4.31h7.81Z"
        transform="translate(-93.57 -162.75)" fill="#539b99" />
    <path d="M198.13,273h3.53v16.56h8.13l-.4,3.56H198.13Z" transform="translate(-93.57 -162.75)"
        fill="#539b99" />
    <path
        d="M226.65,283c0,5.6-2.73,10.43-8,10.43-5.12,0-7.8-4.59-7.8-10.36s3-10.35,8-10.35C223.63,272.69,226.65,276.81,226.65,283Zm-12.19,0c0,3.93,1.4,6.91,4.29,6.91,3.14,0,4.26-3.25,4.26-6.83,0-3.81-1.27-6.8-4.31-6.8S214.46,279,214.46,283Z"
        transform="translate(-93.57 -162.75)" fill="#539b99" />
    <path
        d="M229.74,273h6.75c3.47,0,5.82,2.41,5.82,6.23,0,4.37-2.68,6.38-5.9,6.38h-3.14v7.51h-3.53Zm3.53,9.15H236a2.85,2.85,0,0,0,.08-5.69h-2.77Z"
        transform="translate(-93.57 -162.75)" fill="#539b99" />
    <path d="M256.19,284.42h-7.8v5.12H257l-.42,3.56H245V273h11.58v3.57h-8.15v4.31h7.8Z"
        transform="translate(-93.57 -162.75)" fill="#539b99" />
    <path
        d="M263,285.05v8.05h-3.45V273h7.18a5.15,5.15,0,0,1,5.47,5.52c0,2.71-1.19,4.17-2.37,4.77.81.36,2,1.4,2,5v1a20,20,0,0,0,.23,3.83h-3.34a17.1,17.1,0,0,1-.34-4.51v-.3c0-2.2-.46-3.24-3.09-3.24Zm0-3.46h3c1.93,0,2.68-.91,2.68-2.59a2.31,2.31,0,0,0-2.59-2.56h-3Z"
        transform="translate(-93.57 -162.75)" fill="#539b99" />
</svg>